<svg width="128" height="128" viewBox="0 0 128 128" fill="none" xmlns="http://www.w3.org/2000/svg">
<g clip-path="url(#clip0_1499_127)">
<path d="M99.5558 73.6743C87.5382 110.818 39.2646 105.675 15.5879 103.932C-6.42989 96.8081 0.0448185 64.557 8.13007 39.5671C16.2153 14.5772 40.6187 0.0937094 62.6364 7.21736C84.6542 14.341 169.254 49.2239 99.5558 73.6743Z" fill="url(#paint0_linear_1499_127)"/>
<path d="M6.63811 78.7121C14.1091 57.112 65.597 28.8902 84.8619 35.5535C104.127 42.2167 132.332 71.5772 124.861 93.1774C117.39 114.778 77.072 120.438 57.8071 113.775C38.5422 107.111 -0.832872 100.312 6.63811 78.7121Z" fill="url(#paint1_linear_1499_127)"/>
<path d="M48.112 73.096V85H40.336V73L27.328 51.4H35.584L44.56 66.328L53.536 51.4H61.168L48.112 73.096ZM85.6724 67.672H92.7764V81.304C90.9524 82.68 88.8404 83.736 86.4404 84.472C84.0404 85.208 81.6244 85.576 79.1924 85.576C75.7044 85.576 72.5684 84.84 69.7844 83.368C67.0004 81.864 64.8084 79.8 63.2084 77.176C61.6404 74.52 60.8564 71.528 60.8564 68.2C60.8564 64.872 61.6404 61.896 63.2084 59.272C64.8084 56.616 67.0164 54.552 69.8324 53.08C72.6484 51.576 75.8164 50.824 79.3364 50.824C82.2804 50.824 84.9524 51.32 87.3524 52.312C89.7524 53.304 91.7684 54.744 93.4004 56.632L88.4084 61.24C86.0084 58.712 83.1124 57.448 79.7204 57.448C77.5764 57.448 75.6724 57.896 74.0084 58.792C72.3444 59.688 71.0484 60.952 70.1204 62.584C69.1924 64.216 68.7284 66.088 68.7284 68.2C68.7284 70.28 69.1924 72.136 70.1204 73.768C71.0484 75.4 72.3284 76.68 73.9604 77.608C75.6244 78.504 77.5124 78.952 79.6244 78.952C81.8644 78.952 83.8804 78.472 85.6724 77.512V67.672Z" fill="white"/>
</g>
<defs>
<linearGradient id="paint0_linear_1499_127" x1="34.501" y1="15.2984" x2="87.9648" y2="91.6797" gradientUnits="userSpaceOnUse">
<stop stop-color="#F36A76"/>
<stop offset="1" stop-color="#FBCB84" stop-opacity="0.85"/>
</linearGradient>
<linearGradient id="paint1_linear_1499_127" x1="56.0296" y1="114.047" x2="83.3584" y2="35.0334" gradientUnits="userSpaceOnUse">
<stop stop-color="#EF5B5B"/>
<stop offset="1" stop-color="#FBCB84" stop-opacity="0.39"/>
</linearGradient>
<clipPath id="clip0_1499_127">
<rect width="128" height="128" rx="8" fill="white"/>
</clipPath>
</defs>
</svg>
